<?xml version="1.0" standalone="no"?>
<!DOCTYPE svg PUBLIC "-//W3C//DTD SVG 20010904//EN"
 "http://www.w3.org/TR/2001/REC-SVG-20010904/DTD/svg10.dtd">
<svg version="1.0" xmlns="http://www.w3.org/2000/svg"
 width="380.000000pt" height="380.000000pt" viewBox="0 0 380.000000 380.000000"
 preserveAspectRatio="xMidYMid meet">
<metadata>
Created by potrace 1.11, written by Peter Selinger 2001-2013
</metadata>
<g transform="translate(0.000000,380.000000) scale(0.100000,-0.100000)"
fill="#000000" stroke="none">
<path d="M1683 3589 c-130 -23 -233 -118 -263 -243 -5 -17 -28 -97 -53 -178
l-46 -147 2 -398 c2 -384 3 -400 23 -444 26 -56 86 -118 137 -142 32 -15 36
-21 27 -37 -5 -10 -10 -28 -10 -39 0 -17 -6 -21 -32 -21 -51 -1 -137 -11 -206
-24 -50 -10 -75 -10 -115 -1 -218 49 -439 -106 -542 -380 -14 -37 -24 -72 -22
-78 2 -6 14 -12 28 -13 13 -1 42 -4 64 -8 58 -9 112 -15 175 -21 30 -3 66 -7
80 -10 29 -5 102 -12 215 -21 44 -3 98 -7 120 -9 293 -28 867 -24 1290 10 88
7 119 9 220 20 28 3 73 7 100 10 28 2 97 9 155 16 58 6 116 12 130 13 32 3 35
21 15 98 -34 133 -124 269 -225 341 -96 68 -233 86 -350 47 -34 -12 -74 -19
-89 -16 -44 9 -83 14 -163 21 -42 4 -91 9 -110 10 -18 2 -38 4 -44 4 -7 1 -14
11 -18 24 -3 12 -19 37 -35 55 l-30 33 102 75 c56 41 119 87 139 102 43 32 89
99 111 162 21 59 17 212 -5 238 -9 9 -19 42 -23 72 -3 30 -8 66 -10 80 -2 14
-9 63 -16 110 -6 47 -13 96 -15 110 -2 14 -6 49 -9 79 -3 30 -8 57 -10 61 -2
3 -6 34 -10 69 -9 84 -11 94 -33 143 -35 80 -135 158 -219 172 -40 7 -344 56
-368 59 -11 2 -39 0 -62 -4z"/>
<path d="M3229 1351 c-20 -4 -44 -6 -52 -5 -13 2 -16 -11 -16 -74 0 -43 0
-108 0 -146 l-1 -70 -79 135 -78 134 -39 -1 c-21 -1 -51 -2 -66 -3 l-28 -1 0
-249 c0 -190 3 -250 13 -253 10 -4 84 -3 110 1 4 0 8 63 8 139 1 75 3 129 6
120 2 -10 9 -18 14 -18 5 0 9 -4 9 -9 0 -12 121 -225 132 -232 5 -3 34 -5 66
-4 l57 1 3 272 c2 215 0 272 -10 271 -7 -1 -29 -4 -49 -8z"/>
<path d="M516 1334 c-17 -16 -18 -22 -18 -156 -1 -147 5 -154 126 -157 38 -1
73 -4 78 -7 4 -3 8 -23 8 -45 l0 -39 -108 0 -108 0 2 -32 c1 -18 3 -44 3 -58
l1 -25 154 0 c203 1 196 -4 195 156 -1 149 -7 157 -122 160 -80 3 -95 11 -91
49 1 8 2 23 3 32 1 14 10 16 59 12 31 -3 76 -6 100 -7 l43 -3 -3 55 -3 56
-125 12 c-169 15 -176 15 -194 -3z"/>
<path d="M939 1307 c-1 -11 0 -413 1 -467 0 -25 2 -26 63 -24 34 1 65 2 69 3
4 1 7 26 7 57 0 31 2 59 6 62 3 3 49 5 101 3 145 -4 144 -5 144 173 0 190 12
179 -225 192 -71 3 -138 8 -147 9 -10 2 -18 -2 -19 -8z m246 -187 l0 -75 -44
0 c-55 0 -66 11 -65 61 4 106 -2 95 57 92 l52 -3 0 -75z"/>
<path d="M2657 1303 c-1 -1 -51 -3 -112 -6 l-110 -5 -2 -233 c-1 -129 2 -236
7 -239 5 -3 84 -5 177 -5 l168 0 1 45 c1 25 -2 50 -7 55 -4 6 -51 9 -109 8
l-101 -1 3 41 c2 29 8 42 18 43 8 1 49 2 91 3 l76 1 -1 53 -1 52 -92 -2 -93
-3 0 40 c0 25 5 40 13 41 28 3 105 9 152 12 l49 3 2 52 2 51 -65 -2 c-35 -1
-65 -3 -66 -4z"/>
<path d="M1440 1270 c-16 -16 -18 -40 -17 -215 0 -171 3 -200 18 -218 16 -20
26 -21 175 -22 151 -1 190 4 206 29 4 6 8 100 8 208 0 246 17 227 -210 232
-145 3 -164 2 -180 -14z m250 -220 c0 -108 -2 -130 -15 -131 -8 -1 -31 -1 -50
-1 -19 0 -41 0 -48 1 -10 1 -13 32 -14 131 l0 130 63 0 64 0 0 -130z"/>
<path d="M1997 1281 c-37 -3 -67 -9 -67 -13 0 -5 0 -108 0 -231 l0 -223 63 2
c34 1 65 3 70 3 4 1 7 28 7 60 0 49 4 65 24 88 l24 28 11 -25 c5 -14 28 -54
49 -89 l40 -65 75 -1 c89 -2 90 -20 -16 153 l-69 112 69 93 c38 50 73 98 77
105 6 9 -10 11 -69 8 -42 -2 -80 -7 -84 -12 -4 -5 -34 -46 -66 -92 -32 -45
-60 -80 -63 -78 -2 3 -4 46 -3 95 1 50 0 90 -1 89 -2 -1 -33 -4 -71 -7z"/>
<path d="M512 726 c-17 -22 -18 -43 -18 -281 l1 -257 24 -19 c21 -17 41 -19
195 -19 227 0 221 -5 217 182 l-1 57 32 3 33 3 0 60 0 60 -142 3 -143 3 0 -66
0 -65 40 0 40 0 0 -53 0 -53 -70 -1 c-69 -1 -70 -1 -71 25 -2 142 0 304 4 308
3 4 68 7 144 7 l138 2 0 63 1 62 -202 0 c-202 0 -203 0 -222 -24z"/>
<path d="M1070 450 l0 -301 77 3 78 3 0 295 0 295 -77 3 -78 3 0 -301z"/>
<path d="M1359 731 l-24 -19 0 -279 0 -278 78 -3 77 -3 0 76 0 75 68 0 68 0
-1 -62 c-1 -35 0 -69 3 -75 3 -9 28 -13 78 -13 l73 0 3 108 c2 59 1 187 -2
285 -5 162 -7 180 -24 193 -15 11 -60 14 -197 14 -159 0 -179 -2 -200 -19z
m266 -203 l1 -98 -68 0 -68 0 0 93 c0 52 3 97 7 101 4 4 34 6 68 4 l60 -3 0
-97z"/>
<path d="M1891 450 l0 -301 72 3 72 3 0 157 c0 87 3 154 7 150 3 -4 30 -52 59
-107 29 -55 65 -122 80 -150 l28 -50 73 0 73 0 1 298 1 297 -72 0 -71 0 1
-161 c0 -182 5 -181 -76 -30 -25 47 -58 110 -74 139 l-29 52 -72 0 -73 0 0
-300z"/>
<path d="M2418 738 c-3 -7 -4 -35 -3 -63 l2 -50 64 0 c41 0 66 -4 69 -12 3 -7
5 -114 4 -238 l0 -225 77 0 78 0 0 198 c0 108 1 214 1 235 l0 37 65 0 c36 0
65 3 66 8 1 4 2 33 3 65 l2 57 -212 0 c-160 0 -213 -3 -216 -12z"/>
<path d="M2930 728 c-18 -20 -20 -35 -20 -159 0 -181 1 -182 130 -184 102 -1
109 -5 105 -70 l-2 -30 -99 -2 c-54 -1 -107 -2 -116 -2 -15 -1 -18 -11 -18
-66 l0 -65 170 0 c225 0 216 -7 219 182 2 179 0 182 -128 183 -50 1 -94 5 -98
9 -11 10 -12 85 -2 92 5 3 56 6 114 6 l105 1 0 64 0 63 -170 0 c-161 0 -170
-1 -190 -22z"/>
</g>
</svg>
